# xmcd
#
# Track frame offsets: 
#        150
#        12009
#        24833
#        38436
#        52042
#        65284
#        79874
#        93196
#        105265
#        118468
#        132366
#        146650
#        160415
#        173071
#        185800
#        197849
#        211296
#        223871
#
# Disc length: 3149 seconds
#
# Revision: 5
# Processed by: cddbd v1.5.2PL0 Copyright (c) Steve Scherf et al.
# Submitted via: ExactAudioCopy v1.0b4
#
DISCID=fa0c4b12
DTITLE=John Lee 'Sonny Boy' Williamson - Broken Heart Blues CD1
DYEAR=1900
DGENRE=Blues
TTITLE0=She was a dreamer
TTITLE1=Decoration Day blues no. 2
TTITLE2=Western Union man
TTITLE3=Springtime blues
TTITLE4=War time blues
TTITLE5=Sloppy drunk blues
TTITLE6=Shotgun blues
TTITLE7=New early in the morning
TTITLE8=You got to step back
TTITLE9=Drink on little girl
TTITLE10=My baby made a change
TTITLE11=Million years blues
TTITLE12=I been dealing with the devil
TTITLE13=Broken heart blues
TTITLE14=She don't love me that way
TTITLE15=Blues that made me drunk
TTITLE16=Come on baby and take a walk
TTITLE17=I'm gonna catch you soon
EXTD=
EXTT0=
EXTT1=
EXTT2=
EXTT3=
EXTT4=
EXTT5=
EXTT6=
EXTT7=
EXTT8=
EXTT9=
EXTT10=
EXTT11=
EXTT12=
EXTT13=
EXTT14=
EXTT15=
EXTT16=
EXTT17=
PLAYORDER=
